<?xml version="1.0" encoding="utf-8"?><svg version="1.1" id="Layer_1" xmlns="http://www.w3.org/2000/svg" xmlns:xlink="http://www.w3.org/1999/xlink" x="0px" y="0px" viewBox="0 0 122.873 23.572" enable-background="new 0 0 122.873 23.572" xml:space="preserve"><g><path fill-rule="evenodd" clip-rule="evenodd" fill="#F79C34" d="M48.485,18.439c-4.541,3.351-11.124,5.133-16.792,5.133 c-7.945,0-15.1-2.938-20.514-7.826c-0.425-0.384-0.046-0.908,0.465-0.611c5.841,3.399,13.065,5.447,20.525,5.447 c5.033,0,10.565-1.045,15.656-3.204C48.593,17.053,49.237,17.884,48.485,18.439L48.485,18.439z"/><path fill-rule="evenodd" clip-rule="evenodd" fill="#F79C34" d="M50.375,16.281c-0.582-0.743-3.839-0.353-5.303-0.177 c-0.443,0.054-0.512-0.334-0.113-0.615c2.6-1.825,6.859-1.299,7.354-0.687c0.499,0.616-0.132,4.887-2.567,6.924 c-0.375,0.313-0.731,0.146-0.565-0.267C49.73,20.09,50.957,17.026,50.375,16.281L50.375,16.281z"/><path fill-rule="evenodd" clip-rule="evenodd" fill="#333E47" d="M111.219,18.126c0-0.314,0-0.598,0-0.912 c0-0.26,0.127-0.438,0.398-0.423c0.505,0.072,1.22,0.144,1.728,0.039c0.662-0.138,1.138-0.607,1.419-1.251 c0.396-0.906,0.658-1.638,0.824-2.117l-5.032-12.466c-0.085-0.211-0.109-0.604,0.313-0.604h1.76c0.335,0,0.472,0.212,0.547,0.421 l3.648,10.125l3.482-10.125c0.071-0.208,0.214-0.421,0.546-0.421h1.659c0.42,0,0.396,0.392,0.313,0.604l-4.991,12.854 c-0.646,1.712-1.507,4.437-3.444,4.91c-0.972,0.254-2.198,0.162-2.918-0.14C111.288,18.53,111.219,18.287,111.219,18.126 L111.219,18.126z M90.582,2.084c2.752,0,3.502,2.165,3.502,4.643c0.016,1.67-0.292,3.16-1.156,4.013 c-0.647,0.639-1.371,0.813-2.46,0.813c-0.969,0-2.244-0.505-3.196-1.209V3.257C88.263,2.496,89.528,2.084,90.582,2.084 L90.582,2.084z M86.851,18.57h-1.662c-0.232,0-0.423-0.189-0.423-0.422c0-5.771,0-11.542,0-17.313c0-0.232,0.19-0.422,0.423-0.422 h1.271c0.268,0,0.451,0.193,0.484,0.422l0.134,0.907c1.191-1.057,2.725-1.735,4.187-1.735c4.092,0,5.438,3.372,5.438,6.878 c0,3.751-2.059,6.766-5.54,6.766c-1.466,0-2.836-0.541-3.891-1.48v5.978C87.271,18.381,87.082,18.57,86.851,18.57L86.851,18.57z M108.872,12.912c0,0.232-0.19,0.423-0.424,0.423h-1.24c-0.268,0-0.451-0.194-0.484-0.423l-0.125-0.844 c-0.57,0.482-1.27,0.906-2.028,1.201c-1.459,0.566-3.141,0.66-4.566-0.215c-1.031-0.633-1.578-1.87-1.578-3.146 c0-0.987,0.304-1.966,0.979-2.677c0.9-0.971,2.204-1.448,3.78-1.448c0.951,0,2.313,0.112,3.304,0.436V4.521 c0-1.728-0.728-2.476-2.646-2.476c-1.466,0-2.588,0.222-4.148,0.707c-0.25,0.008-0.396-0.182-0.396-0.414V1.37 c0-0.232,0.198-0.457,0.413-0.526c1.114-0.485,2.693-0.788,4.372-0.844c2.188,0,4.788,0.493,4.788,3.858V12.912L108.872,12.912z M106.488,10.432V7.868c-0.833-0.228-2.211-0.322-2.744-0.322c-0.842,0-1.764,0.199-2.246,0.717 c-0.359,0.38-0.522,0.926-0.522,1.454c0,0.682,0.236,1.367,0.787,1.705c0.641,0.435,1.634,0.382,2.567,0.117 C105.228,11.284,106.069,10.833,106.488,10.432L106.488,10.432z M9.566,13.642c-0.16,0.144-0.391,0.153-0.571,0.057 c-0.804-0.668-0.948-0.977-1.387-1.612c-1.328,1.353-2.268,1.758-3.988,1.758C1.584,13.844,0,12.587,0,10.074 C0,8.11,1.063,6.775,2.58,6.121C3.892,5.544,5.725,5.44,7.127,5.283V4.969c0-0.577,0.046-1.257-0.293-1.754 C6.539,2.769,5.973,2.586,5.476,2.586c-0.923,0-1.744,0.473-1.944,1.452C3.49,4.256,3.331,4.472,3.111,4.483L0.767,4.229 C0.568,4.184,0.349,4.025,0.406,3.724c0.531-2.805,3.036-3.679,5.313-3.703h0.179c1.166,0.015,2.654,0.334,3.56,1.204 c1.176,1.1,1.063,2.566,1.063,4.163v3.768c0,1.134,0.471,1.631,0.913,2.241c0.154,0.221,0.19,0.482-0.008,0.644 c-0.494,0.414-1.372,1.176-1.855,1.606L9.566,13.642L9.566,13.642z M7.127,7.744c0,0.942,0.023,1.728-0.453,2.566 C6.291,10.99,5.68,11.409,5,11.409c-0.927,0-1.47-0.707-1.47-1.754c0-2.061,1.848-2.435,3.598-2.435V7.744L7.127,7.744z M41.275,13.642c-0.16,0.144-0.39,0.153-0.571,0.057c-0.803-0.668-0.947-0.977-1.387-1.612c-1.328,1.353-2.268,1.758-3.988,1.758 c-2.036,0-3.62-1.257-3.62-3.77c0-1.964,1.064-3.299,2.58-3.954c1.313-0.576,3.145-0.681,4.548-0.838V4.969 c0-0.577,0.045-1.257-0.294-1.754c-0.294-0.446-0.859-0.629-1.357-0.629c-0.923,0-1.742,0.473-1.944,1.452 c-0.042,0.218-0.201,0.434-0.419,0.445l-2.345-0.254c-0.198-0.045-0.417-0.204-0.361-0.506c0.532-2.805,3.037-3.679,5.313-3.703 h0.18c1.165,0.015,2.653,0.334,3.56,1.204c1.177,1.1,1.063,2.566,1.063,4.163v3.768c0,1.134,0.471,1.631,0.913,2.241 c0.155,0.221,0.189,0.482-0.008,0.644c-0.494,0.414-1.372,1.176-1.854,1.606L41.275,13.642L41.275,13.642z M38.837,7.744 c0,0.942,0.022,1.728-0.453,2.566c-0.385,0.68-0.996,1.099-1.674,1.099c-0.927,0-1.471-0.707-1.471-1.754 c0-2.061,1.848-2.435,3.598-2.435V7.744L38.837,7.744z M71.066,13.672h-2.41c-0.242-0.015-0.434-0.207-0.434-0.445L68.218,0.808 c0.021-0.228,0.222-0.406,0.466-0.406l2.243,0c0.212,0.011,0.386,0.155,0.43,0.347v1.899h0.046 c0.678-1.699,1.625-2.508,3.296-2.508c1.084,0,2.146,0.392,2.822,1.463c0.633,0.993,0.633,2.664,0.633,3.866v7.813 c-0.026,0.221-0.225,0.391-0.464,0.391h-2.425c-0.224-0.014-0.404-0.179-0.431-0.391v-6.74c0-1.358,0.158-3.345-1.513-3.345 c-0.587,0-1.129,0.392-1.399,0.993c-0.34,0.758-0.385,1.516-0.385,2.352v6.685C71.533,13.473,71.324,13.672,71.066,13.672 L71.066,13.672z M60.9,2.674c-1.783,0-1.896,2.429-1.896,3.944c0,1.515-0.022,4.755,1.875,4.755c1.874,0,1.965-2.612,1.965-4.206 c0-1.044-0.046-2.299-0.362-3.292C62.211,3.013,61.668,2.674,60.9,2.674L60.9,2.674z M60.879,0.14c3.59,0,5.531,3.084,5.531,7.002 c0,3.787-2.145,6.792-5.531,6.792c-3.523,0-5.442-3.083-5.442-6.922C55.437,3.144,57.378,0.14,60.879,0.14L60.879,0.14z M16.172,13.672h-2.418c-0.23-0.015-0.415-0.188-0.434-0.408l0.002-12.416c0-0.248,0.209-0.446,0.467-0.446l2.253,0 c0.235,0.012,0.424,0.19,0.439,0.417v1.621h0.045c0.587-1.567,1.693-2.299,3.184-2.299c1.513,0,2.461,0.732,3.139,2.299 c0.587-1.567,1.919-2.299,3.341-2.299c1.016,0,2.123,0.418,2.799,1.359c0.768,1.045,0.611,2.56,0.611,3.892l-0.003,7.834 c0,0.247-0.208,0.446-0.466,0.446h-2.416c-0.244-0.015-0.435-0.207-0.435-0.445l0-6.582c0-0.522,0.045-1.828-0.068-2.324 c-0.181-0.837-0.722-1.072-1.421-1.072c-0.588,0-1.198,0.392-1.446,1.019c-0.248,0.628-0.225,1.672-0.225,2.378v6.581 c0,0.247-0.209,0.446-0.467,0.446h-2.416c-0.243-0.015-0.435-0.207-0.435-0.445l-0.002-6.582c0-1.385,0.226-3.421-1.49-3.421 c-1.739,0-1.671,1.984-1.671,3.421l-0.001,6.581C16.639,13.473,16.43,13.672,16.172,13.672L16.172,13.672z M45.175,2.592V0.818 c0.001-0.27,0.205-0.45,0.449-0.449l7.951-0.001c0.254,0,0.459,0.185,0.459,0.448v1.521c-0.003,0.255-0.218,0.588-0.599,1.117 l-4.119,5.88c1.529-0.035,3.146,0.194,4.535,0.974c0.313,0.176,0.397,0.437,0.422,0.692v1.893c0,0.262-0.286,0.563-0.586,0.406 c-2.446-1.282-5.694-1.422-8.4,0.016c-0.276,0.146-0.565-0.151-0.565-0.412v-1.799c0-0.287,0.006-0.78,0.296-1.219l4.771-6.846 l-4.155,0C45.38,3.039,45.176,2.858,45.175,2.592L45.175,2.592z"/></g></svg>