<?xml version="1.0" encoding="utf-8"?><svg version="1.1" id="Layer_1" xmlns="http://www.w3.org/2000/svg" xmlns:xlink="http://www.w3.org/1999/xlink" x="0px" y="0px" viewBox="0 0 122.88 29.77" style="enable-background:new 0 0 122.88 29.77" xml:space="preserve"><style type="text/css">.st0{fill-rule:evenodd;clip-rule:evenodd;fill:#009EE3;} .st1{fill-rule:evenodd;clip-rule:evenodd;fill:#113984;} .st2{fill-rule:evenodd;clip-rule:evenodd;fill:#172C70;}</style><g><path class="st0" d="M10.72,7.01h8.4c4.51,0,6.21,2.28,5.94,5.64c-0.43,5.54-3.78,8.6-8.22,8.6H14.6c-0.61,0-1.02,0.4-1.18,1.5 l-0.95,6.35c-0.06,0.41-0.28,0.65-0.6,0.68H6.59c-0.5,0-0.67-0.38-0.54-1.2L9.26,8.21C9.39,7.4,9.83,7.01,10.72,7.01L10.72,7.01z"/><path class="st1" d="M47.18,6.63c2.83,0,5.45,1.54,5.09,5.37c-0.43,4.55-2.87,7.07-6.72,7.08h-3.36c-0.48,0-0.72,0.39-0.84,1.2 l-0.65,4.13c-0.1,0.62-0.42,0.93-0.89,0.93h-3.13c-0.5,0-0.67-0.32-0.56-1.03l2.58-16.57c0.13-0.82,0.43-1.12,0.99-1.12H47.18 L47.18,6.63L47.18,6.63z M42.08,15.5h2.55c1.59-0.06,2.65-1.16,2.76-3.15c0.06-1.23-0.77-2.11-2.09-2.1l-2.4,0.01L42.08,15.5 L42.08,15.5L42.08,15.5z M60.77,24.08c0.29-0.26,0.58-0.39,0.54-0.07l-0.1,0.77c-0.05,0.4,0.11,0.61,0.48,0.61h2.78 c0.47,0,0.7-0.19,0.81-0.91l1.71-10.75c0.09-0.54-0.05-0.8-0.46-0.8h-3.06c-0.28,0-0.41,0.15-0.48,0.57l-0.11,0.66 c-0.06,0.34-0.22,0.41-0.36,0.06c-0.52-1.23-1.84-1.78-3.69-1.73c-4.29,0.09-7.17,3.34-7.48,7.51c-0.24,3.23,2.07,5.76,5.12,5.76 C58.68,25.75,59.67,25.1,60.77,24.08L60.77,24.08L60.77,24.08L60.77,24.08z M58.44,22.43c-1.84,0-3.13-1.47-2.86-3.28 c0.27-1.8,1.99-3.28,3.84-3.28s3.13,1.47,2.86,3.28C62.01,20.95,60.29,22.43,58.44,22.43L58.44,22.43L58.44,22.43z M72.42,12.89 h-2.82c-0.58,0-0.82,0.43-0.63,0.97l3.5,10.24l-3.43,4.87c-0.29,0.41-0.06,0.78,0.34,0.78h3.17c0.04,0,0.07,0.01,0.11,0.01 c0.34,0,0.65-0.18,0.83-0.47l10.76-15.43c0.33-0.47,0.18-0.97-0.37-0.97h-3c-0.51,0-0.72,0.2-1.01,0.63l-4.49,6.5l-2-6.52 C73.26,13.1,72.97,12.89,72.42,12.89L72.42,12.89L72.42,12.89z"/><path class="st0" d="M95.44,6.63c2.83,0,5.45,1.54,5.09,5.37c-0.43,4.55-2.87,7.07-6.72,7.08h-3.36c-0.48,0-0.72,0.39-0.84,1.2 l-0.65,4.13c-0.1,0.62-0.42,0.93-0.89,0.93h-3.13c-0.5,0-0.67-0.32-0.56-1.03l2.59-16.57c0.13-0.81,0.43-1.12,0.99-1.12L95.44,6.63 L95.44,6.63L95.44,6.63z M90.35,15.5h2.55c1.59-0.06,2.65-1.16,2.76-3.15c0.06-1.23-0.77-2.11-2.09-2.1l-2.4,0.01L90.35,15.5 L90.35,15.5L90.35,15.5z M109.03,24.08c0.29-0.26,0.58-0.39,0.54-0.07l-0.1,0.77c-0.05,0.4,0.11,0.61,0.48,0.61h2.78 c0.47,0,0.7-0.19,0.81-0.91l1.71-10.75c0.09-0.54-0.05-0.8-0.46-0.8h-3.05c-0.28,0-0.41,0.15-0.48,0.57l-0.11,0.66 c-0.06,0.34-0.22,0.41-0.36,0.06c-0.52-1.23-1.84-1.78-3.68-1.73c-4.29,0.09-7.17,3.34-7.48,7.51c-0.24,3.23,2.07,5.76,5.12,5.76 c2.21,0,3.2-0.65,4.31-1.67l0,0L109.03,24.08L109.03,24.08z M106.71,22.43c-1.84,0-3.13-1.47-2.86-3.28 c0.27-1.8,1.99-3.28,3.84-3.28c1.84,0,3.13,1.47,2.86,3.28C110.28,20.95,108.55,22.43,106.71,22.43L106.71,22.43L106.71,22.43z M119.52,25.4h-3.21c-0.01,0-0.01,0-0.02,0c-0.21,0-0.38-0.17-0.38-0.38c0-0.02,0-0.04,0-0.05l2.82-17.85 c0.06-0.25,0.28-0.43,0.53-0.43h3.21c0.01,0,0.01,0,0.02,0c0.21,0,0.38,0.17,0.38,0.38c0,0.02,0,0.04,0,0.05l-2.82,17.85 C120,25.22,119.78,25.4,119.52,25.4L119.52,25.4L119.52,25.4z"/><path class="st1" d="M5.47,0h8.41c2.37,0,5.18,0.08,7.05,1.73c1.25,1.11,1.91,2.87,1.76,4.77c-0.52,6.42-4.35,10.01-9.5,10.01H9.04 c-0.71,0-1.17,0.47-1.37,1.73l-1.16,7.37c-0.08,0.48-0.28,0.76-0.65,0.79H0.68c-0.57,0-0.78-0.43-0.63-1.39L3.78,1.4 C3.93,0.45,4.45,0,5.47,0L5.47,0z"/><path class="st2" d="M7.79,17.5l1.47-9.29c0.13-0.81,0.57-1.21,1.46-1.21h8.4c1.39,0,2.51,0.22,3.39,0.62 c-0.84,5.71-4.54,8.89-9.38,8.89H9C8.44,16.51,8.04,16.79,7.79,17.5L7.79,17.5z"/></g></svg>